STARTFONT 2.1
FONT -FontForge-Peking Assignment-Book-R-Normal--70-670-75-75-P-203-ISO10646-1
SIZE 67 75 75
FONTBOUNDINGBOX 40 44 -9 -9
COMMENT "Generated by fontforge, http://fontforge.sourceforge.net"
COMMENT "Copyright NAL 2014"
STARTPROPERTIES 39
FOUNDRY "FontForge"
FAMILY_NAME "Peking Assignment"
WEIGHT_NAME "Book"
SLANT "R"
SETWIDTH_NAME "Normal"
ADD_STYLE_NAME ""
PIXEL_SIZE 70
POINT_SIZE 670
RESOLUTION_X 75
RESOLUTION_Y 75
SPACING "P"
AVERAGE_WIDTH 203
CHARSET_REGISTRY "ISO10646"
CHARSET_ENCODING "1"
FONTNAME_REGISTRY ""
CHARSET_COLLECTIONS "ISO10646-1"
FONT_NAME "Peking-Assignment"
FACE_NAME "Peking Assignment Regular"
COPYRIGHT "Copyright NAL 2014"
FONT_VERSION "1.0"
FONT_ASCENT 56
FONT_DESCENT 14
UNDERLINE_POSITION 5
UNDERLINE_THICKNESS 4
X_HEIGHT 21
CAP_HEIGHT 30
RAW_ASCENT 799
RAW_DESCENT 200
NORM_SPACE 9
RELATIVE_WEIGHT 40
RELATIVE_SETWIDTH 50
SUPERSCRIPT_X 0
SUPERSCRIPT_Y 35
SUPERSCRIPT_SIZE 35
SUBSCRIPT_X 0
SUBSCRIPT_Y -4
SUBSCRIPT_SIZE 35
AVG_LOWERCASE_WIDTH 210
AVG_UPPERCASE_WIDTH 260
ENDPROPERTIES
CHARS 100
STARTCHAR space
ENCODING 32
SWIDTH 114 0
DWIDTH 8 0
BBX 1 1 0 0
BITMAP
00
ENDCHAR
STARTCHAR exclam
ENCODING 33
SWIDTH 125 0
DWIDTH 9 0
BBX 4 31 0 0
BITMAP
F0
F0
F0
F0
F0
F0
F0
F0
F0
F0
F0
F0
F0
F0
F0
F0
F0
F0
F0
F0
F0
F0
00
00
00
00
00
F0
F0
F0
F0
ENDCHAR
STARTCHAR quotedbl
ENCODING 34
SWIDTH 187 0
DWIDTH 13 0
BBX 9 9 0 22
BITMAP
FF80
FF80
FF80
FF80
FF80
FF00
EE00
CC00
8800
ENDCHAR
STARTCHAR numbersign
ENCODING 35
SWIDTH 375 0
DWIDTH 26 0
BBX 22 31 0 0
BITMAP
0F87C0
0F87C0
0F87C0
0F87C0
0F87C0
0F87C0
0F87C0
0F87C0
0F87C0
FFFFFC
FFFFFC
FFFFFC
FFFFFC
FF87C0
0F87C0
0F87C0
0F87C0
0F87C0
FFFFFC
FFFFFC
FFFFFC
FFFFFC
0F87C0
0F87C0
0F87C0
0F87C0
0F87C0
0F87C0
0F87C0
0F87C0
0F87C0
ENDCHAR
STARTCHAR dollar
ENCODING 36
SWIDTH 375 0
DWIDTH 26 0
BBX 22 39 0 -4
BITMAP
007800
007800
007800
007800
0FFFFC
1FFFFC
3FFFFC
7FFFFC
FFFFFC
F0787C
F0787C
F0787C
F0787C
F07800
F07800
F07800
F07800
F07FFC
FFFFFC
FFFFFC
FFFFFC
FFFFFC
00787C
00787C
00787C
00787C
F0787C
F0787C
F0787C
F0787C
F0787C
FFFFF8
FFFFF0
FFFFE0
FFFFC0
007800
007800
007800
007800
ENDCHAR
STARTCHAR percent
ENCODING 37
SWIDTH 375 0
DWIDTH 26 0
BBX 22 31 0 0
BITMAP
FF807C
FF807C
FF807C
FF807C
FF807C
FF807C
FF807C
FF807C
FF807C
00007C
00007C
00007C
00007C
00007C
1FFFF8
3FFFF0
7FFFE0
FFFFC0
F00000
F00000
F00000
F00000
F007FC
F007FC
F007FC
F007FC
F007FC
F007FC
F007FC
F007FC
F007FC
ENDCHAR
STARTCHAR ampersand
ENCODING 38
SWIDTH 375 0
DWIDTH 26 0
BBX 22 31 0 0
BITMAP
F07800
F0F800
F1F800
F3F800
F7F800
F00000
F00000
F00000
F00000
F007C0
F007C0
F007C0
F007C0
F007FC
7FFFFC
3FFFFC
1FFFFC
0FFFFC
F007C0
F007C0
F007C0
F007C0
F007C0
F007C0
F007C0
F007C0
F007C0
FFFFFC
FFFFFC
FFFFFC
FFFFFC
ENDCHAR
STARTCHAR quotesingle
ENCODING 39
SWIDTH 125 0
DWIDTH 9 0
BBX 4 9 0 22
BITMAP
F0
F0
F0
F0
F0
F0
E0
C0
80
ENDCHAR
STARTCHAR parenleft
ENCODING 40
SWIDTH 187 0
DWIDTH 13 0
BBX 9 31 0 0
BITMAP
FF80
FF80
FF80
FF80
FF80
F000
F000
F000
F000
F000
F000
F000
F000
F000
F000
F000
F000
F000
F000
F000
F000
F000
F000
F000
F000
F000
F000
FF80
FF80
FF80
FF80
ENDCHAR
STARTCHAR parenright
ENCODING 41
SWIDTH 187 0
DWIDTH 13 0
BBX 9 31 0 0
BITMAP
FF80
FF80
FF80
FF80
FF80
0F80
0F80
0F80
0F80
0F80
0F80
0F80
0F80
0F80
0F80
0F80
0F80
0F80
0F80
0F80
0F80
0F80
0F80
0F80
0F80
0F80
0F80
FF80
FF80
FF80
FF80
ENDCHAR
STARTCHAR asterisk
ENCODING 42
SWIDTH 250 0
DWIDTH 18 0
BBX 13 13 0 18
BITMAP
0F80
8F88
CF98
EFB8
FFF8
0F80
0F80
0F80
0F80
FFF8
EFB8
CF98
8F88
ENDCHAR
STARTCHAR plus
ENCODING 43
SWIDTH 250 0
DWIDTH 18 0
BBX 13 13 0 9
BITMAP
0F80
0F80
0F80
0F80
0FF8
FFF8
FFF8
FFF8
FFF8
0F80
0F80
0F80
0F80
ENDCHAR
STARTCHAR comma
ENCODING 44
SWIDTH 125 0
DWIDTH 9 0
BBX 4 8 0 -4
BITMAP
F0
F0
F0
F0
F0
E0
C0
80
ENDCHAR
STARTCHAR hyphen
ENCODING 45
SWIDTH 250 0
DWIDTH 18 0
BBX 13 5 0 13
BITMAP
FFF8
FFF8
FFF8
FFF8
FFF8
ENDCHAR
STARTCHAR period
ENCODING 46
SWIDTH 125 0
DWIDTH 9 0
BBX 4 4 0 0
BITMAP
F0
F0
F0
F0
ENDCHAR
STARTCHAR slash
ENCODING 47
SWIDTH 375 0
DWIDTH 26 0
BBX 22 31 0 0
BITMAP
00007C
00007C
00007C
00007C
00007C
00007C
00007C
00007C
00007C
00007C
00007C
00007C
00007C
00007C
1FFFF8
3FFFF0
7FFFE0
FFFFC0
F00000
F00000
F00000
F00000
F00000
F00000
F00000
F00000
F00000
F00000
F00000
F00000
F00000
ENDCHAR
STARTCHAR zero
ENCODING 48
SWIDTH 300 0
DWIDTH 21 0
BBX 18 31 0 0
BITMAP
FFFFC0
FFFFC0
FFFFC0
FFFFC0
FFFFC0
F007C0
F007C0
F007C0
F007C0
F007C0
F00FC0
F01FC0
F03FC0
F07FC0
F0F7C0
F1E7C0
F3C7C0
F787C0
FF07C0
FE07C0
FC07C0
F807C0
F007C0
F007C0
F007C0
F007C0
F007C0
FFFFC0
FFFFC0
FFFFC0
FFFFC0
ENDCHAR
STARTCHAR one
ENCODING 49
SWIDTH 300 0
DWIDTH 21 0
BBX 7 31 9 0
BITMAP
3E
3E
3E
3E
7E
FE
FE
FE
02
06
0E
1E
3E
3E
3E
3E
3E
3E
3E
3E
3E
3E
3E
3E
3E
3E
3E
3E
3E
3E
3E
ENDCHAR
STARTCHAR two
ENCODING 50
SWIDTH 300 0
DWIDTH 21 0
BBX 18 31 0 0
BITMAP
F07C00
F0FE00
F1FF00
F3FF80
F7FFC0
F007C0
F007C0
F007C0
F007C0
0007C0
0007C0
0007C0
0007C0
0007C0
FFFFC0
FFFFC0
FFFFC0
FFFFC0
F00000
F00000
F00000
F00000
F007C0
F007C0
F007C0
F007C0
F007C0
FFFFC0
FFF7C0
FFE7C0
FFC7C0
ENDCHAR
STARTCHAR three
ENCODING 51
SWIDTH 300 0
DWIDTH 21 0
BBX 18 31 0 0
BITMAP
FF87C0
FFC7C0
FFE7C0
FFF7C0
FFFFC0
F007C0
F007C0
F007C0
F007C0
0007C0
0007C0
0007C0
0007C0
0007C0
0FFF80
0FFF00
0FFE00
0FFC00
0007C0
0007C0
0007C0
0007C0
F007C0
F007C0
F007C0
F007C0
F007C0
FFFFC0
FFFFC0
FFFFC0
FFFFC0
ENDCHAR
STARTCHAR four
ENCODING 52
SWIDTH 300 0
DWIDTH 21 0
BBX 18 31 0 0
BITMAP
F03E00
F03E00
F03E00
F03E00
F03E00
F03E00
F03E00
F03E00
F03E00
F03E00
F03E00
F03E00
F03E00
F03E00
F03E00
F03E00
F03E00
F03E00
F0FFC0
F1FFC0
F3FFC0
F7FFC0
003E00
003E00
003E00
003E00
003E00
003E00
003E00
003E00
003E00
ENDCHAR
STARTCHAR five
ENCODING 53
SWIDTH 300 0
DWIDTH 21 0
BBX 18 31 0 0
BITMAP
FF87C0
FFC7C0
FFE7C0
FFF7C0
FFFFC0
F007C0
F007C0
F007C0
F007C0
F00000
F00000
F00000
F00000
FFFFC0
FFFFC0
FFFFC0
FFFFC0
FFFFC0
0007C0
0007C0
0007C0
0007C0
F007C0
F007C0
F007C0
F007C0
F007C0
F7FF80
F3FF00
F3FE00
F3FC00
ENDCHAR
STARTCHAR six
ENCODING 54
SWIDTH 300 0
DWIDTH 21 0
BBX 18 31 0 0
BITMAP
FF87C0
FFC7C0
FFE7C0
FFF7C0
FFFFC0
F007C0
F007C0
F007C0
F007C0
F00000
F00000
F00000
F00000
F0FFC0
F0FFC0
F1FFC0
F3FFC0
F7FFC0
F007C0
F007C0
F007C0
F007C0
F007C0
F007C0
F007C0
F007C0
F007C0
FFFFC0
FFFFC0
FFFFC0
FFFFC0
ENDCHAR
STARTCHAR seven
ENCODING 55
SWIDTH 300 0
DWIDTH 21 0
BBX 18 31 0 0
BITMAP
F07FC0
F0FFC0
F1FFC0
F3FFC0
F7FFC0
F007C0
F007C0
F007C0
F007C0
0007C0
0007C0
0007C0
0007C0
0007C0
1FFF80
3FFF00
7FFE00
FFFC00
F00000
F00000
F00000
F00000
F00000
F00000
F00000
F00000
F00000
F00000
F00000
F00000
F00000
ENDCHAR
STARTCHAR eight
ENCODING 56
SWIDTH 300 0
DWIDTH 21 0
BBX 18 31 0 0
BITMAP
FF87C0
FFC7C0
FFE7C0
FFF7C0
FFFFC0
F007C0
F007C0
F007C0
F007C0
F007C0
F007C0
F007C0
F007C0
F007C0
1FFF80
3FFF00
7FFE00
FFFC00
F007C0
F007C0
F007C0
F007C0
F007C0
F007C0
F007C0
F007C0
F007C0
FFFFC0
FFFFC0
FFFFC0
FFFFC0
ENDCHAR
STARTCHAR nine
ENCODING 57
SWIDTH 300 0
DWIDTH 21 0
BBX 18 31 0 0
BITMAP
FFFFC0
FFFFC0
FFFFC0
FFFFC0
FFFFC0
F007C0
F007C0
F007C0
F007C0
F007C0
F007C0
F007C0
F007C0
FFFFC0
FFFFC0
FFF7C0
FFE7C0
FFC7C0
0007C0
0007C0
0007C0
0007C0
F007C0
F007C0
F007C0
F007C0
F007C0
F7FFC0
F3FFC0
F1FFC0
F0FFC0
ENDCHAR
STARTCHAR colon
ENCODING 58
SWIDTH 114 0
DWIDTH 8 0
BBX 4 14 0 8
BITMAP
F0
F0
F0
F0
F0
00
00
00
00
F0
F0
F0
F0
F0
ENDCHAR
STARTCHAR semicolon
ENCODING 59
SWIDTH 125 0
DWIDTH 9 0
BBX 4 17 0 5
BITMAP
F0
F0
F0
F0
F0
00
00
00
00
F0
F0
F0
F0
F0
E0
C0
80
ENDCHAR
STARTCHAR less
ENCODING 60
SWIDTH 187 0
DWIDTH 13 0
BBX 9 31 0 0
BITMAP
FF80
FF80
FF80
FF80
FF80
F000
F000
F000
F000
F000
F000
F000
F000
F000
F000
F000
F000
F000
F000
F000
F000
F000
F000
F000
F000
F000
F000
FF80
FF80
FF80
FF80
ENDCHAR
STARTCHAR equal
ENCODING 61
SWIDTH 250 0
DWIDTH 18 0
BBX 13 13 0 9
BITMAP
FFF8
FFF8
FFF8
FFF8
FFF8
0000
0000
0000
0000
FFF8
FFF8
FFF8
FFF8
ENDCHAR
STARTCHAR greater
ENCODING 62
SWIDTH 187 0
DWIDTH 13 0
BBX 9 31 0 0
BITMAP
FF80
FF80
FF80
FF80
FF80
0F80
0F80
0F80
0F80
0F80
0F80
0F80
0F80
0F80
0F80
0F80
0F80
0F80
0F80
0F80
0F80
0F80
0F80
0F80
0F80
0F80
0F80
FF80
FF80
FF80
FF80
ENDCHAR
STARTCHAR question
ENCODING 63
SWIDTH 375 0
DWIDTH 26 0
BBX 22 31 0 0
BITMAP
F07FC0
F0FFE0
F1FFF0
F3FFF8
F7FFFC
F0007C
F0007C
F0007C
F0007C
00007C
00007C
00007C
00007C
00007C
0FFFFC
0FFFFC
0FFFFC
0FFFFC
0F8000
0F8000
0F8000
0F8000
000000
000000
000000
000000
000000
0F8000
0F8000
0F8000
0F8000
ENDCHAR
STARTCHAR at
ENCODING 64
SWIDTH 375 0
DWIDTH 26 0
BBX 22 31 0 0
BITMAP
FFFFFC
FFFFFC
FFFFFC
FFFFFC
FFFFFC
F0007C
F0007C
F0007C
F0007C
F0787C
F0787C
F0787C
F0787C
F0787C
F0787C
F0787C
F0787C
F0787C
F0787C
F078FC
F079FC
F07BFC
000000
100000
300000
700000
F00000
FFFFFC
FFFFFC
FFFFFC
FFFFFC
ENDCHAR
STARTCHAR A
ENCODING 65
SWIDTH 375 0
DWIDTH 26 0
BBX 22 31 0 0
BITMAP
FFFFFC
FFFFFC
FFFFFC
FFFFFC
FFFFFC
F0007C
F0007C
F0007C
F0007C
F0007C
F0007C
F0007C
F0007C
F0007C
F0FFFC
F1FFFC
F3FFFC
F7FFFC
F0007C
F0007C
F0007C
F0007C
F0007C
F0007C
F0007C
F0007C
F0007C
F0007C
F0007C
F0007C
F0007C
ENDCHAR
STARTCHAR B
ENCODING 66
SWIDTH 375 0
DWIDTH 26 0
BBX 22 31 0 0
BITMAP
F07FFC
F0FFFC
F1FFFC
F3FFFC
F7FFFC
F0007C
F0007C
F0007C
F0007C
F0007C
F0007C
F0007C
F0007C
F0007C
F0FFF8
F1FFF0
F3FFE0
F7FFC0
F0007C
F0007C
F0007C
F0007C
F0007C
F0007C
F0007C
F0007C
F0007C
F7FFFC
F3FFFC
F1FFFC
F0FFFC
ENDCHAR
STARTCHAR C
ENCODING 67
SWIDTH 375 0
DWIDTH 26 0
BBX 22 31 0 0
BITMAP
FFF87C
FFFC7C
FFFE7C
FFFF7C
FFFFFC
F0007C
F0007C
F0007C
F0007C
F00000
F00000
F00000
F00000
F00000
F00000
F00000
F00000
F00000
F00000
F00000
F00000
F00000
F0007C
F0007C
F0007C
F0007C
F0007C
FFFFFC
FFFF7C
FFFE7C
FFFC7C
ENDCHAR
STARTCHAR D
ENCODING 68
SWIDTH 375 0
DWIDTH 26 0
BBX 22 31 0 0
BITMAP
F07FFC
F0FFFC
F1FFFC
F3FFFC
F7FFFC
F0007C
F0007C
F0007C
F0007C
F0007C
F0007C
F0007C
F0007C
F0007C
F0007C
F0007C
F0007C
F0007C
F0007C
F0007C
F0007C
F0007C
F0007C
F0007C
F0007C
F0007C
F0007C
F7FFFC
F3FFFC
F1FFFC
F0FFFC
ENDCHAR
STARTCHAR E
ENCODING 69
SWIDTH 375 0
DWIDTH 26 0
BBX 22 31 0 0
BITMAP
F07FFC
F0FFFC
F1FFFC
F3FFFC
F7FFFC
F0007C
F0007C
F0007C
F0007C
F00000
F00000
F00000
F00000
F07FC0
F0FFC0
F1FFC0
F3FFC0
F7FFC0
F00000
F00000
F00000
F00000
F0007C
F0007C
F0007C
F0007C
F0007C
FFFFFC
FFFFFC
FFFFFC
FFFFFC
ENDCHAR
STARTCHAR F
ENCODING 70
SWIDTH 375 0
DWIDTH 26 0
BBX 22 31 0 0
BITMAP
F07FFC
F0FFFC
F1FFFC
F3FFFC
F7FFFC
F0007C
F0007C
F0007C
F0007C
F00000
F00000
F00000
F00000
F07FC0
F0FFC0
F1FFC0
F3FFC0
F7FFC0
F00000
F00000
F00000
F00000
F00000
F00000
F00000
F00000
F00000
F00000
F00000
F00000
F00000
ENDCHAR
STARTCHAR G
ENCODING 71
SWIDTH 375 0
DWIDTH 26 0
BBX 22 31 0 0
BITMAP
FFF87C
FFFC7C
FFFE7C
FFFF7C
FFFFFC
F0007C
F0007C
F0007C
F0007C
F00000
F00000
F00000
F00000
F07FFC
F07FFC
F07FFC
F07FFC
F07FFC
F0007C
F0007C
F0007C
F0007C
F0007C
F0007C
F0007C
F0007C
F0007C
FFFFFC
FFFF7C
FFFE7C
FFFC7C
ENDCHAR
STARTCHAR H
ENCODING 72
SWIDTH 375 0
DWIDTH 26 0
BBX 22 31 0 0
BITMAP
F0007C
F0007C
F0007C
F0007C
F0007C
F0007C
F0007C
F0007C
F0007C
F0007C
F0007C
F0007C
F0007C
F0007C
F0FFFC
F1FFFC
F3FFFC
F7FFFC
F0007C
F0007C
F0007C
F0007C
F0007C
F0007C
F0007C
F0007C
F0007C
F0007C
F0007C
F0007C
F0007C
ENDCHAR
STARTCHAR I
ENCODING 73
SWIDTH 125 0
DWIDTH 9 0
BBX 4 31 0 0
BITMAP
F0
F0
F0
F0
F0
F0
F0
F0
F0
F0
F0
F0
F0
F0
F0
F0
F0
F0
F0
F0
F0
F0
F0
F0
F0
F0
F0
F0
F0
F0
F0
ENDCHAR
STARTCHAR J
ENCODING 74
SWIDTH 375 0
DWIDTH 26 0
BBX 22 31 0 0
BITMAP
0007FC
0007FC
0007FC
0007FC
0007FC
00007C
00007C
00007C
00007C
00007C
00007C
00007C
00007C
00007C
00007C
00007C
00007C
00007C
00007C
00007C
00007C
00007C
F0007C
F0007C
F0007C
F0007C
F0007C
F7FFFC
F3FFFC
F1FFFC
F0FFFC
ENDCHAR
STARTCHAR K
ENCODING 75
SWIDTH 375 0
DWIDTH 26 0
BBX 22 31 0 0
BITMAP
F0007C
F0007C
F0007C
F0007C
F0007C
F0007C
F0007C
F0007C
F0007C
F0007C
F0007C
F0007C
F0007C
F0007C
F0FFF8
F1FFF0
F3FFE0
F7FFC0
F0007C
F0007C
F0007C
F0007C
F0007C
F0007C
F0007C
F0007C
F0007C
F0007C
F0007C
F0007C
F0007C
ENDCHAR
STARTCHAR L
ENCODING 76
SWIDTH 375 0
DWIDTH 26 0
BBX 22 31 0 0
BITMAP
FF8000
FF8000
FF8000
FF8000
FF8000
F00000
F00000
F00000
F00000
F00000
F00000
F00000
F00000
F00000
F00000
F00000
F00000
F00000
F00000
F00000
F00000
F00000
F0007C
F0007C
F0007C
F0007C
F0007C
F0FFFC
F1FFFC
F3FFFC
F7FFFC
ENDCHAR
STARTCHAR M
ENCODING 77
SWIDTH 500 0
DWIDTH 35 0
BBX 31 31 0 0
BITMAP
F07FC3FE
F0FFC7FE
F1FFCFFE
F3FFDFFE
F7FFFFFE
F007C03E
F007C03E
F007C03E
F007C03E
F007C03E
F007C03E
F007C03E
F007C03E
F007C03E
F007C03E
F007C03E
F007C03E
F007C03E
F007C03E
F007C03E
F007C03E
F007C03E
F007C03E
F007C03E
F007C03E
F007C03E
F007C03E
F007C03E
F007C03E
F007C03E
F007C03E
ENDCHAR
STARTCHAR N
ENCODING 78
SWIDTH 375 0
DWIDTH 26 0
BBX 22 31 0 0
BITMAP
F07FFC
F0FFFC
F1FFFC
F3FFFC
F7FFFC
F0007C
F0007C
F0007C
F0007C
F0007C
F0007C
F0007C
F0007C
F0007C
F0007C
F0007C
F0007C
F0007C
F0007C
F0007C
F0007C
F0007C
F0007C
F0007C
F0007C
F0007C
F0007C
F0007C
F0007C
F0007C
F0007C
ENDCHAR
STARTCHAR O
ENCODING 79
SWIDTH 375 0
DWIDTH 26 0
BBX 22 31 0 0
BITMAP
FFFFFC
FFFFFC
FFFFFC
FFFFFC
FFFFFC
F0007C
F0007C
F0007C
F0007C
F0007C
F0007C
F0007C
F0007C
F0007C
F0007C
F0007C
F0007C
F0007C
F0007C
F0007C
F0007C
F0007C
F0007C
F0007C
F0007C
F0007C
F0007C
FFFFFC
FFFFFC
FFFFFC
FFFFFC
ENDCHAR
STARTCHAR P
ENCODING 80
SWIDTH 375 0
DWIDTH 26 0
BBX 22 31 0 0
BITMAP
F07FFC
F0FFFC
F1FFFC
F3FFFC
F7FFFC
F0007C
F0007C
F0007C
F0007C
F0007C
F0007C
F0007C
F0007C
F0007C
F7FFFC
F3FFFC
F1FFFC
F0FFFC
F00000
F00000
F00000
F00000
F00000
F00000
F00000
F00000
F00000
F00000
F00000
F00000
F00000
ENDCHAR
STARTCHAR Q
ENCODING 81
SWIDTH 375 0
DWIDTH 26 0
BBX 22 35 0 -4
BITMAP
FFFFFC
FFFFFC
FFFFFC
FFFFFC
FFFFFC
F0007C
F0007C
F0007C
F0007C
F0007C
F0007C
F0007C
F0007C
F0007C
F0007C
F0007C
F0007C
F0007C
F0787C
F0787C
F0787C
F0787C
F0787C
F0787C
F0787C
F0787C
F0787C
FFFBFC
FFF9FC
FFF8FC
FFF87C
007800
007800
007800
007800
ENDCHAR
STARTCHAR R
ENCODING 82
SWIDTH 375 0
DWIDTH 26 0
BBX 22 31 0 0
BITMAP
F07FFC
F0FFFC
F1FFFC
F3FFFC
F7FFFC
F0007C
F0007C
F0007C
F0007C
F0007C
F0007C
F0007C
F0007C
FFFFFC
F7FFE0
F3FFF0
F1FFF8
F0FFFC
F0007C
F0007C
F0007C
F0007C
F0007C
F0007C
F0007C
F0007C
F0007C
F0007C
F0007C
F0007C
F0007C
ENDCHAR
STARTCHAR S
ENCODING 83
SWIDTH 375 0
DWIDTH 26 0
BBX 22 31 0 0
BITMAP
FFF87C
FFFC7C
FFFE7C
FFFF7C
FFFFFC
F0007C
F0007C
F0007C
F0007C
F00000
F00000
F00000
F00000
FFFFFC
FFFFFC
FFFFFC
FFFFFC
FFFFFC
00007C
00007C
00007C
00007C
F0007C
F0007C
F0007C
F0007C
F0007C
F7FFFC
F3FFFC
F1FFFC
F0FFFC
ENDCHAR
STARTCHAR T
ENCODING 84
SWIDTH 375 0
DWIDTH 26 0
BBX 22 31 0 0
BITMAP
FFFFFC
FF7FFC
FE7FFC
FC7FFC
F87FFC
F0787C
F0787C
F0787C
F0787C
007800
007800
007800
007800
007800
007800
007800
007800
007800
007800
007800
007800
007800
007800
007800
007800
007800
007800
007800
007800
007800
007800
ENDCHAR
STARTCHAR U
ENCODING 85
SWIDTH 375 0
DWIDTH 26 0
BBX 22 31 0 0
BITMAP
F0007C
F0007C
F0007C
F0007C
F0007C
F0007C
F0007C
F0007C
F0007C
F0007C
F0007C
F0007C
F0007C
F0007C
F0007C
F0007C
F0007C
F0007C
F0007C
F0007C
F0007C
F0007C
F0007C
F0007C
F0007C
F0007C
F0007C
FFFFFC
FFFF7C
FFFE7C
FFFC7C
ENDCHAR
STARTCHAR V
ENCODING 86
SWIDTH 375 0
DWIDTH 26 0
BBX 22 31 0 0
BITMAP
F0007C
F0007C
F0007C
F0007C
F0007C
F0007C
F0007C
F0007C
F0007C
F0007C
F0007C
F0007C
F0007C
F0007C
F0007C
F0007C
F0007C
F0007C
F0007C
F0007C
F0007C
F0007C
F0007C
F0007C
F0007C
F0007C
F0007C
7FFFF8
3FFFF0
1FFFE0
0FFFC0
ENDCHAR
STARTCHAR W
ENCODING 87
SWIDTH 500 0
DWIDTH 35 0
BBX 31 31 0 0
BITMAP
F007C03E
F007C03E
F007C03E
F007C03E
F007C03E
F007C03E
F007C03E
F007C03E
F007C03E
F007C03E
F007C03E
F007C03E
F007C03E
F007C03E
F007C03E
F007C03E
F007C03E
F007C03E
F007C03E
F007C03E
F007C03E
F007C03E
F007C03E
F007C03E
F007C03E
F007C03E
F007C03E
FFF7FFBE
FFE7FF3E
FFC7FE3E
FF87FC3E
ENDCHAR
STARTCHAR X
ENCODING 88
SWIDTH 375 0
DWIDTH 26 0
BBX 22 31 0 0
BITMAP
F0007C
F0007C
F0007C
F0007C
F0007C
F0007C
F0007C
F0007C
F0007C
F0007C
70007C
30007C
10007C
00007C
FFFFFC
FFFFFC
FFFFFC
FFFFFC
F00040
F00060
F00070
F00078
F0007C
F0007C
F0007C
F0007C
F0007C
F0007C
F0007C
F0007C
F0007C
ENDCHAR
STARTCHAR Y
ENCODING 89
SWIDTH 375 0
DWIDTH 26 0
BBX 22 31 0 0
BITMAP
F0007C
F0007C
F0007C
F0007C
F0007C
F0007C
F0007C
F0007C
F0007C
F0007C
70007C
30007C
10007C
00007C
FFFFFC
FFFFFC
FFFFFC
FFFFFC
000000
004000
006000
007000
007800
007800
007800
007800
007800
007800
007800
007800
007800
ENDCHAR
STARTCHAR Z
ENCODING 90
SWIDTH 375 0
DWIDTH 26 0
BBX 22 31 0 0
BITMAP
F07FFC
F0FFFC
F1FFFC
F3FFFC
F7FFFC
F0007C
F0007C
F0007C
F0007C
00007C
00007C
00007C
00007C
00007C
1FFFF8
3FFFF0
7FFFE0
FFFFC0
F00000
F00000
F00000
F00000
F0007C
F0007C
F0007C
F0007C
F0007C
FFFFFC
FFFF7C
FFFE7C
FFFC7C
ENDCHAR
STARTCHAR bracketleft
ENCODING 91
SWIDTH 187 0
DWIDTH 13 0
BBX 9 31 0 0
BITMAP
FF80
FF80
FF80
FF80
FF80
F000
F000
F000
F000
F000
F000
F000
F000
F000
F000
F000
F000
F000
F000
F000
F000
F000
F000
F000
F000
F000
F000
FF80
FF80
FF80
FF80
ENDCHAR
STARTCHAR backslash
ENCODING 92
SWIDTH 375 0
DWIDTH 26 0
BBX 22 31 0 0
BITMAP
F00000
F00000
F00000
F00000
F00000
F00000
F00000
F00000
F00000
F00000
F00000
F00000
F00000
FFFFC0
7FFFE0
3FFFF0
1FFFF8
0FFFFC
00007C
00007C
00007C
00007C
00007C
00007C
00007C
00007C
00007C
00007C
00007C
00007C
00007C
ENDCHAR
STARTCHAR bracketright
ENCODING 93
SWIDTH 187 0
DWIDTH 13 0
BBX 9 31 0 0
BITMAP
FF80
FF80
FF80
FF80
FF80
0F80
0F80
0F80
0F80
0F80
0F80
0F80
0F80
0F80
0F80
0F80
0F80
0F80
0F80
0F80
0F80
0F80
0F80
0F80
0F80
0F80
0F80
FF80
FF80
FF80
FF80
ENDCHAR
STARTCHAR asciicircum
ENCODING 94
SWIDTH 125 0
DWIDTH 9 0
BBX 4 9 0 22
BITMAP
F0
F0
F0
F0
F0
F0
E0
C0
80
ENDCHAR
STARTCHAR underscore
ENCODING 95
SWIDTH 375 0
DWIDTH 26 0
BBX 22 4 0 0
BITMAP
FFFFFC
FFFFFC
FFFFFC
FFFFFC
ENDCHAR
STARTCHAR grave
ENCODING 96
SWIDTH 125 0
DWIDTH 9 0
BBX 4 9 0 22
BITMAP
F0
F0
F0
F0
F0
F0
E0
C0
80
ENDCHAR
STARTCHAR a
ENCODING 97
SWIDTH 312 0
DWIDTH 22 0
BBX 18 22 0 0
BITMAP
FF87C0
FFC7C0
FFE7C0
FFF7C0
F007C0
F007C0
F007C0
F007C0
F007C0
F007C0
F007C0
F007C0
F007C0
F007C0
F007C0
F007C0
F007C0
F007C0
FFF7C0
FFE7C0
FFC7C0
FF87C0
ENDCHAR
STARTCHAR b
ENCODING 98
SWIDTH 312 0
DWIDTH 22 0
BBX 18 31 0 0
BITMAP
F00000
F00000
F00000
F00000
F00000
F00000
F00000
F00000
F00000
F0FFC0
F1FFC0
F3FFC0
F7FFC0
FFFFC0
F007C0
F007C0
F007C0
F007C0
F007C0
F007C0
F007C0
F007C0
F007C0
F007C0
F007C0
F007C0
F007C0
F7FFC0
F3FFC0
F1FFC0
F0FFC0
ENDCHAR
STARTCHAR c
ENCODING 99
SWIDTH 312 0
DWIDTH 22 0
BBX 18 22 0 0
BITMAP
FFFFC0
FFFFC0
FFFFC0
FFFFC0
FFFFC0
1007C0
3007C0
7007C0
F007C0
F00000
F00000
F00000
F00000
F007C0
F007C0
F007C0
F007C0
F007C0
FFFFC0
FFFFC0
FFFFC0
FFFFC0
ENDCHAR
STARTCHAR d
ENCODING 100
SWIDTH 312 0
DWIDTH 22 0
BBX 18 31 0 0
BITMAP
0007C0
0007C0
0007C0
0007C0
0007C0
0007C0
0007C0
0007C0
0007C0
FF87C0
FFC7C0
FFE7C0
FFF7C0
F007C0
F007C0
F007C0
F007C0
F007C0
F007C0
F007C0
F007C0
F007C0
F007C0
F007C0
F007C0
F007C0
F007C0
FFF7C0
FFE7C0
FFC7C0
FF87C0
ENDCHAR
STARTCHAR e
ENCODING 101
SWIDTH 312 0
DWIDTH 22 0
BBX 18 22 0 0
BITMAP
FFFFC0
FFFFC0
FFFFC0
FFFFC0
FFFFC0
1007C0
3007C0
7007C0
F007C0
F7FFC0
F3FFC0
F1FFC0
F0FFC0
F00000
F00000
F00000
F00000
F00000
FFFFC0
FFFFC0
FFFFC0
FFFFC0
ENDCHAR
STARTCHAR f
ENCODING 102
SWIDTH 250 0
DWIDTH 18 0
BBX 13 31 0 0
BITMAP
FFF8
FFF8
FFF8
FFF8
FFF8
7000
3000
1000
0000
FFF8
FFF8
FFF8
FFF8
F000
F000
F000
F000
F000
F000
F000
F000
F000
F000
F000
F000
F000
F000
F000
F000
F000
F000
ENDCHAR
STARTCHAR g
ENCODING 103
SWIDTH 312 0
DWIDTH 22 0
BBX 18 31 0 -9
BITMAP
FF87C0
FFC7C0
FFE7C0
FFF7C0
F007C0
F007C0
F007C0
F007C0
F007C0
F007C0
F007C0
F007C0
F007C0
F007C0
F007C0
F007C0
F007C0
F007C0
FFF7C0
FFE7C0
FFC7C0
FF87C0
0007C0
0007C0
0007C0
0007C0
0FFFC0
0FFFC0
0FFFC0
0FFFC0
0FFFC0
ENDCHAR
STARTCHAR h
ENCODING 104
SWIDTH 312 0
DWIDTH 22 0
BBX 18 31 0 0
BITMAP
F00000
F00000
F00000
F00000
F00000
F00000
F00000
F00000
F00000
F0FFC0
F1FFC0
F3FFC0
F7FFC0
FFFFC0
F007C0
F007C0
F007C0
F007C0
F007C0
F007C0
F007C0
F007C0
F007C0
F007C0
F007C0
F007C0
F007C0
F007C0
F007C0
F007C0
F007C0
ENDCHAR
STARTCHAR i
ENCODING 105
SWIDTH 125 0
DWIDTH 9 0
BBX 4 31 0 0
BITMAP
F0
F0
F0
F0
F0
00
00
00
00
F0
F0
F0
F0
F0
F0
F0
F0
F0
F0
F0
F0
F0
F0
F0
F0
F0
F0
F0
F0
F0
F0
ENDCHAR
STARTCHAR j
ENCODING 106
SWIDTH 125 0
DWIDTH 9 0
BBX 13 40 -9 -9
BITMAP
0078
0078
0078
0078
0078
0000
0000
0000
0000
0078
0078
0078
0078
0078
0078
0078
0078
0078
0078
0078
0078
0078
0078
0078
0078
0078
0078
0078
0078
0078
0078
0078
0078
0078
0078
FFF8
FFF8
FFF8
FFF8
FFF8
ENDCHAR
STARTCHAR k
ENCODING 107
SWIDTH 312 0
DWIDTH 22 0
BBX 18 31 0 0
BITMAP
F00000
F00000
F00000
F00000
F00000
F00000
F00000
F00000
F00000
F007C0
F007C0
F007C0
F007C0
F007C0
7007C0
3007C0
1007C0
0007C0
FFFFC0
FFFFC0
FFFFC0
FFFFC0
F00000
F00400
F00600
F00700
F00780
F007C0
F007C0
F007C0
F007C0
ENDCHAR
STARTCHAR l
ENCODING 108
SWIDTH 125 0
DWIDTH 9 0
BBX 4 31 0 0
BITMAP
F0
F0
F0
F0
F0
F0
F0
F0
F0
F0
F0
F0
F0
F0
F0
F0
F0
F0
F0
F0
F0
F0
F0
F0
F0
F0
F0
F0
F0
F0
F0
ENDCHAR
STARTCHAR m
ENCODING 109
SWIDTH 500 0
DWIDTH 35 0
BBX 31 22 0 0
BITMAP
F0FFC7FE
F1FFCFFE
F3FFDFFE
F7FFFFFE
FFFFFFFE
F007C03E
F007C03E
F007C03E
F007C03E
F007C03E
F007C03E
F007C03E
F007C03E
F007C03E
F007C03E
F007C03E
F007C03E
F007C03E
F007C03E
F007C03E
F007C03E
F007C03E
ENDCHAR
STARTCHAR n
ENCODING 110
SWIDTH 312 0
DWIDTH 22 0
BBX 18 22 0 0
BITMAP
F0FFC0
F1FFC0
F3FFC0
F7FFC0
FFFFC0
F007C0
F007C0
F007C0
F007C0
F007C0
F007C0
F007C0
F007C0
F007C0
F007C0
F007C0
F007C0
F007C0
F007C0
F007C0
F007C0
F007C0
ENDCHAR
STARTCHAR o
ENCODING 111
SWIDTH 312 0
DWIDTH 22 0
BBX 18 22 0 0
BITMAP
FFFFC0
FFFFC0
FFFFC0
FFFFC0
F007C0
F007C0
F007C0
F007C0
F007C0
F007C0
F007C0
F007C0
F007C0
F007C0
F007C0
F007C0
F007C0
F007C0
FFFFC0
FFFFC0
FFFFC0
FFFFC0
ENDCHAR
STARTCHAR p
ENCODING 112
SWIDTH 312 0
DWIDTH 22 0
BBX 18 31 0 -9
BITMAP
F0FFC0
F1FFC0
F3FFC0
F7FFC0
FFFFC0
F007C0
F007C0
F007C0
F007C0
F007C0
F007C0
F007C0
F007C0
F007C0
F007C0
F007C0
F007C0
F007C0
F7FFC0
F3FFC0
F1FFC0
F0FFC0
F00000
F00000
F00000
F00000
F00000
F00000
F00000
F00000
F00000
ENDCHAR
STARTCHAR q
ENCODING 113
SWIDTH 312 0
DWIDTH 22 0
BBX 18 31 0 -9
BITMAP
FF87C0
FFC7C0
FFE7C0
FFF7C0
F007C0
F007C0
F007C0
F007C0
F007C0
F007C0
F007C0
F007C0
F007C0
F007C0
F007C0
F007C0
F007C0
F007C0
FFF7C0
FFE7C0
FFC7C0
FF87C0
0007C0
0007C0
0007C0
0007C0
0007C0
0007C0
0007C0
0007C0
0007C0
ENDCHAR
STARTCHAR r
ENCODING 114
SWIDTH 250 0
DWIDTH 18 0
BBX 13 22 0 0
BITMAP
F0F8
F1F8
F3F8
F7F8
FFF8
F000
F000
F000
F000
F000
F000
F000
F000
F000
F000
F000
F000
F000
F000
F000
F000
F000
ENDCHAR
STARTCHAR s
ENCODING 115
SWIDTH 312 0
DWIDTH 22 0
BBX 18 22 0 0
BITMAP
FFFFC0
FFFFC0
FFFFC0
FFFFC0
F00000
700000
300000
100000
000000
FFFFC0
FFFFC0
FFFFC0
FFFFC0
0007C0
0007C0
0007C0
0007C0
0007C0
FFFFC0
FFFFC0
FFFFC0
FFFFC0
ENDCHAR
STARTCHAR t
ENCODING 116
SWIDTH 250 0
DWIDTH 18 0
BBX 13 31 0 0
BITMAP
F000
F000
F000
F000
F000
F000
F000
F000
F000
FFF8
FFF8
FFF8
FFF8
FFF8
1000
3000
7000
F000
F000
F000
F000
F000
F000
F000
F000
F000
F000
FFF8
FFF8
FFF8
FFF8
ENDCHAR
STARTCHAR u
ENCODING 117
SWIDTH 312 0
DWIDTH 22 0
BBX 18 22 0 0
BITMAP
F007C0
F007C0
F007C0
F007C0
F007C0
F007C0
F007C0
F007C0
F007C0
F007C0
F007C0
F007C0
F007C0
F007C0
F007C0
F007C0
F007C0
F007C0
FFF7C0
FFE7C0
FFC7C0
FF87C0
ENDCHAR
STARTCHAR v
ENCODING 118
SWIDTH 312 0
DWIDTH 22 0
BBX 18 22 0 0
BITMAP
F007C0
F007C0
F007C0
F007C0
F007C0
F007C0
F007C0
F007C0
F007C0
F007C0
F007C0
F007C0
F007C0
F007C0
F007C0
F007C0
F007C0
F007C0
7FFF80
3FFF00
1FFE00
0FFC00
ENDCHAR
STARTCHAR w
ENCODING 119
SWIDTH 500 0
DWIDTH 35 0
BBX 31 22 0 0
BITMAP
F007C03E
F007C03E
F007C03E
F007C03E
F007C03E
F007C03E
F007C03E
F007C03E
F007C03E
F007C03E
F007C03E
F007C03E
F007C03E
F007C03E
F007C03E
F007C03E
F007C03E
F007C03E
FFF7FFBE
FFE7FF3E
FFC7FE3E
FF87FC3E
ENDCHAR
STARTCHAR x
ENCODING 120
SWIDTH 312 0
DWIDTH 22 0
BBX 18 22 0 0
BITMAP
F007C0
F007C0
F007C0
F007C0
F007C0
7007C0
3007C0
1007C0
0007C0
FFFFC0
FFFFC0
FFFFC0
FFFFC0
F00000
F00400
F00600
F00700
F00780
F007C0
F007C0
F007C0
F007C0
ENDCHAR
STARTCHAR y
ENCODING 121
SWIDTH 312 0
DWIDTH 22 0
BBX 18 31 0 -9
BITMAP
F007C0
F007C0
F007C0
F007C0
F007C0
F007C0
F007C0
F007C0
F007C0
F007C0
F007C0
F007C0
F007C0
F007C0
F007C0
F007C0
F007C0
F007C0
FFF7C0
FFE7C0
FFC7C0
FF87C0
0007C0
0007C0
0007C0
0007C0
0FFFC0
0FFFC0
0FFFC0
0FFFC0
0FFFC0
ENDCHAR
STARTCHAR z
ENCODING 122
SWIDTH 312 0
DWIDTH 22 0
BBX 18 22 0 0
BITMAP
FFFFC0
FFFFC0
FFFFC0
FFFFC0
FFFFC0
0007C0
0007C0
0007C0
0007C0
FFFFC0
FFFFC0
FFFFC0
FFFFC0
F00000
700000
300000
100000
000000
FFFFC0
FFFFC0
FFFFC0
FFFFC0
ENDCHAR
STARTCHAR braceleft
ENCODING 123
SWIDTH 250 0
DWIDTH 18 0
BBX 13 31 0 0
BITMAP
0FF8
0FF8
0FF8
0FF8
0FF8
0F80
0F80
0F80
0F80
0F80
0F80
0F80
0F80
0F80
FF80
FF80
FF80
FF80
0F80
0F80
0F80
0F80
0F80
0F80
0F80
0F80
0F80
0FF8
0FF8
0FF8
0FF8
ENDCHAR
STARTCHAR bar
ENCODING 124
SWIDTH 125 0
DWIDTH 9 0
BBX 4 31 0 0
BITMAP
F0
F0
F0
F0
F0
F0
F0
F0
F0
F0
F0
F0
F0
F0
F0
F0
F0
F0
F0
F0
F0
F0
F0
F0
F0
F0
F0
F0
F0
F0
F0
ENDCHAR
STARTCHAR braceright
ENCODING 125
SWIDTH 250 0
DWIDTH 18 0
BBX 13 31 0 0
BITMAP
FF80
FF80
FF80
FF80
FF80
0F80
0F80
0F80
0F80
0F80
0F80
0F80
0F80
0FF8
0FF8
0FF8
0FF8
0FF8
0F80
0F80
0F80
0F80
0F80
0F80
0F80
0F80
0F80
FF80
FF80
FF80
FF80
ENDCHAR
STARTCHAR asciitilde
ENCODING 126
SWIDTH 250 0
DWIDTH 18 0
BBX 13 5 0 13
BITMAP
FFF8
FFF8
FFF8
FFF8
FFF8
ENDCHAR
STARTCHAR quoteleft
ENCODING 8216
SWIDTH 125 0
DWIDTH 9 0
BBX 4 8 0 22
BITMAP
10
30
70
F0
F0
F0
F0
F0
ENDCHAR
STARTCHAR quoteright
ENCODING 8217
SWIDTH 125 0
DWIDTH 9 0
BBX 4 9 0 22
BITMAP
F0
F0
F0
F0
F0
F0
E0
C0
80
ENDCHAR
STARTCHAR quotedblleft
ENCODING 8220
SWIDTH 187 0
DWIDTH 13 0
BBX 9 8 0 22
BITMAP
1080
3180
7380
F780
FF80
FF80
FF80
FF80
ENDCHAR
STARTCHAR quotedblright
ENCODING 8221
SWIDTH 187 0
DWIDTH 13 0
BBX 9 9 0 22
BITMAP
FF80
FF80
FF80
FF80
FF80
FF00
EE00
CC00
8800
ENDCHAR
STARTCHAR .notdef
ENCODING 8229
SWIDTH 125 0
DWIDTH 9 0
BBX 1 1 0 0
BITMAP
00
ENDCHAR
ENDFONT
